<mxfile host="app.diagrams.net" modified="2024-05-03T02:21:23.809Z" agent="Mozilla/5.0 (X11; Linux x86_64) AppleWebKit/537.36 (KHTML, like Gecko) Chrome/119.0.0.0 Safari/537.36" version="24.3.1" etag="L0scFJMhYaizrqW4EvCR" type="github">
  <diagram name="第 1 页" id="-fBQ2Zc3S_zsf6xObRtY">
    <mxGraphModel>
      <root>
        <mxCell id="0" />
        <mxCell id="1" parent="0" />
      </root>
    </mxGraphModel>
  </diagram>
</mxfile>
